<mxfile host="Electron" agent="Mozilla/5.0 (Windows NT 10.0; Win64; x64) AppleWebKit/537.36 (KHTML, like Gecko) draw.io/27.0.9 Chrome/134.0.6998.205 Electron/35.4.0 Safari/537.36" version="27.0.9" pages="4">
  <diagram name="Factions" id="-R4BllzP6DVIOZKnAPeu">
    <mxGraphModel dx="1560" dy="979" grid="0" gridSize="10" guides="1" tooltips="1" connect="1" arrows="1" fold="1" page="1" pageScale="1" pageWidth="1600" pageHeight="900" math="0" shadow="0">
      <root>
        <mxCell id="0" />
        <mxCell id="1" parent="0" />
        <mxCell id="SikLe_uOMy30VilslOoQ-3" value="&lt;p&gt;&lt;strong&gt;The Ordis Lexis&lt;/strong&gt;&lt;/p&gt;&lt;p&gt;&lt;strong&gt;Type:&lt;/strong&gt; Allied republics (think spacefaring ancient Rome meets a Renaissance republic)&lt;/p&gt;&lt;p&gt;&lt;strong&gt;Race Makeup:&lt;/strong&gt; Mostly &lt;strong&gt;Humans&lt;/strong&gt; and &lt;strong&gt;Heliox&lt;/strong&gt;, a few &lt;strong&gt;Hydrune&lt;/strong&gt; and &lt;strong&gt;Xyleth&lt;/strong&gt;, with diplomatic access to many races&lt;/p&gt;&lt;p&gt;&lt;strong&gt;Flair:&lt;/strong&gt; Philosophical technocrats with an obsession for balance, law, and lost knowledge&lt;/p&gt;&lt;p&gt;&lt;strong&gt;Reputation:&lt;/strong&gt; Known for clean, elegant architecture, precise diplomatic protocol, and stealthy political games&lt;/p&gt;" style="rounded=0;whiteSpace=wrap;html=1;fillColor=#dae8fc;strokeColor=#6c8ebf;align=left;fontSize=15;verticalAlign=top;labelBackgroundColor=none;spacing=6;spacingTop=-10;strokeWidth=2;" parent="1" vertex="1">
          <mxGeometry x="30" y="30" width="270" height="380" as="geometry" />
        </mxCell>
        <mxCell id="SikLe_uOMy30VilslOoQ-5" value="&lt;p&gt;&lt;strong&gt;FES (&lt;/strong&gt;&lt;span style=&quot;background-color: transparent;&quot;&gt;&lt;b&gt;The Federation of Enlightened Systems&lt;/b&gt;&lt;/span&gt;&lt;strong style=&quot;background-color: transparent; color: light-dark(rgb(0, 0, 0), rgb(255, 255, 255));&quot;&gt;)&lt;/strong&gt;&lt;/p&gt;&lt;p&gt;&lt;strong&gt;Type:&lt;/strong&gt;&amp;nbsp;Loose alliance (Based on Modern Europe / Ancient Greece)&lt;/p&gt;&lt;p&gt;&lt;strong&gt;Concept:&lt;/strong&gt;&amp;nbsp;A loose alliance of independent city-states and settlements, bound by shared cultural values, scientific pursuits, and a desire for multually beneficial co-existence and collective expansion.&lt;/p&gt;&lt;p&gt;&lt;strong&gt;Race Makeup:&lt;/strong&gt; Mostly &lt;strong&gt;Humans, Hydrune, &lt;/strong&gt;a few &lt;strong&gt;K&#39;tharr&lt;/strong&gt;&lt;/p&gt;&lt;p&gt;&lt;strong&gt;Flair:&lt;/strong&gt; Slightly aggressive in colonization. Their expansion is driven by a belief in their own constitutional superiority and a desire to &quot;civilize&quot; the other races and territories.&lt;/p&gt;&lt;p&gt;&lt;strong&gt;Reputation:&lt;/strong&gt;&amp;nbsp;Also often referred to as just the Federation. Known for their internal political struggles and issues among different states. Also respected for their creative military tactics and infrastructrual engineering techniques brought by humans.&lt;/p&gt;" style="rounded=0;whiteSpace=wrap;html=1;fillColor=#fff2cc;strokeColor=#d6b656;align=left;fontSize=15;verticalAlign=top;labelBackgroundColor=none;spacing=6;spacingTop=-10;strokeWidth=2;" parent="1" vertex="1">
          <mxGeometry x="330" y="30" width="270" height="570" as="geometry" />
        </mxCell>
        <mxCell id="SikLe_uOMy30VilslOoQ-6" value="&lt;p&gt;&lt;strong&gt;The Myrwarden Commonwealth&lt;/strong&gt;&lt;/p&gt;&lt;p&gt;&lt;strong&gt;Type:&lt;/strong&gt; Ancient aristocracy with divine monarchy and rigid caste structure (Based on ancient Egypt at some point)&lt;/p&gt;&lt;p&gt;&lt;strong&gt;Race Makeup:&lt;/strong&gt; Primarily &lt;strong&gt;K&#39;tharr&lt;/strong&gt;, a few selected bioengineered &lt;strong&gt;humans&lt;/strong&gt;&lt;/p&gt;&lt;p&gt;&lt;strong&gt;Flair:&lt;/strong&gt; Has a rigid aesthetic code and belief in divine destiny. A powerful, technologically advanced military-industrial complex that acts as a de facto government. Their primary focus is on defense, projecting power, and securing strategic resources. While they have elements of democratic ideals, their society is heavily influenced by the military, corporations and religion. They value efficiency above all else.&lt;/p&gt;&lt;p&gt;&lt;strong&gt;Reputation:&lt;/strong&gt; Diplomatically elusive but highly influential in cultural trends and luxury goods. Aggressive in colonization due to them believing in unification and some &quot;one true way&quot; of developing civilization.&lt;/p&gt;" style="rounded=0;whiteSpace=wrap;html=1;fillColor=#d5e8d4;strokeColor=#82b366;align=left;fontSize=15;verticalAlign=top;labelBackgroundColor=none;spacing=6;spacingTop=-10;strokeWidth=2;" parent="1" vertex="1">
          <mxGeometry x="630" y="30" width="270" height="570" as="geometry" />
        </mxCell>
        <mxCell id="SikLe_uOMy30VilslOoQ-7" value="&lt;p&gt;&lt;strong&gt;The Vanta Pact&lt;/strong&gt;&lt;/p&gt;&lt;p&gt;&lt;strong&gt;Type:&lt;/strong&gt; Mercenary alliance and corporate syndicate with decentralized power nodes&lt;/p&gt;&lt;p&gt;&lt;strong&gt;Race Makeup:&lt;/strong&gt; Very diverse—&lt;strong&gt;Humans&lt;/strong&gt;, &lt;strong&gt;Hydrune&lt;/strong&gt;, &lt;strong&gt;Archelect&lt;/strong&gt;, &lt;strong&gt;Veydrin&lt;/strong&gt;, and &lt;strong&gt;Xyleth&lt;/strong&gt;&lt;/p&gt;&lt;p&gt;&lt;strong&gt;Flair:&lt;/strong&gt; Warlords, data cartels, rogue AIs, and blacksite tech dealers&lt;/p&gt;&lt;p&gt;&lt;strong&gt;Reputation:&lt;/strong&gt; Known for both skill and brutality. If there&#39;s profit or leverage in it, the Pact’s in. Master deal-brokers, pirates, and security contractors. They are motivated by profit and self-preservation, offering their services to the highest bidder. They are chaotic, unpredictable, and often operate outside the laws of the established sovereignties.&lt;/p&gt;" style="rounded=0;whiteSpace=wrap;html=1;fillColor=#f8cecc;strokeColor=#b85450;align=left;fontSize=15;verticalAlign=top;labelBackgroundColor=none;spacing=6;spacingTop=-10;strokeWidth=2;" parent="1" vertex="1">
          <mxGeometry x="930" y="30" width="270" height="450" as="geometry" />
        </mxCell>
        <mxCell id="SikLe_uOMy30VilslOoQ-9" value="&lt;p&gt;&lt;strong&gt;The Cosma Chorus&lt;/strong&gt;&lt;/p&gt;&lt;p&gt;&lt;strong&gt;Type:&lt;/strong&gt; Decentralized, knowledge-sharing coalition of planetary enclaves (quasi-scientific anarchists)&lt;/p&gt;&lt;p&gt;&lt;strong&gt;Race Makeup:&lt;/strong&gt; Primarily &lt;strong&gt;Archelect&lt;/strong&gt; and &lt;strong&gt;Xyleth&lt;/strong&gt;, some &lt;strong&gt;Humans, &lt;/strong&gt;a few other races too&lt;/p&gt;&lt;p&gt;&lt;strong&gt;Flair:&lt;/strong&gt; Transparent culture with consensus governance and post-biological spirituality&lt;/p&gt;&lt;p&gt;&lt;strong&gt;Reputation:&lt;/strong&gt; Pioneers in xenotech, biotech, and forgotten pre-collapse science. They prioritize intellectual advancement, artistic expression, and diplomacy. While not as militarily powerful as others, they are highly resourceful and adept at forming alliances.&lt;/p&gt;" style="rounded=0;whiteSpace=wrap;html=1;fillColor=#e1d5e7;strokeColor=#9673a6;align=left;fontSize=15;verticalAlign=top;labelBackgroundColor=none;spacing=6;spacingTop=-10;strokeWidth=2;" parent="1" vertex="1">
          <mxGeometry x="1230" y="30" width="270" height="430" as="geometry" />
        </mxCell>
        <mxCell id="SikLe_uOMy30VilslOoQ-10" value="&lt;p&gt;&lt;b&gt;Name of the game candidates&lt;/b&gt;:&lt;/p&gt;&lt;p&gt;Pulsing Rifts&lt;/p&gt;&lt;p&gt;Echoes Across&lt;/p&gt;&lt;p&gt;Starwakers&lt;/p&gt;&lt;p&gt;Nexarion (nexus + orion)&lt;/p&gt;" style="text;html=1;align=left;verticalAlign=top;whiteSpace=wrap;rounded=0;fontSize=15;" parent="1" vertex="1">
          <mxGeometry x="30" y="650" width="238" height="200" as="geometry" />
        </mxCell>
      </root>
    </mxGraphModel>
  </diagram>
  <diagram id="HhXZfz3o5ox3-Df6TxMU" name="Races">
    <mxGraphModel dx="1680" dy="1054" grid="0" gridSize="10" guides="1" tooltips="1" connect="1" arrows="1" fold="1" page="1" pageScale="1" pageWidth="1600" pageHeight="900" math="0" shadow="0">
      <root>
        <mxCell id="0" />
        <mxCell id="1" parent="0" />
        <mxCell id="BWbd7uNBttn206wndD9W-1" value="&lt;p&gt;&lt;strong&gt;Neohominid (A.k.a &quot;Human&quot;)&lt;/strong&gt;&lt;/p&gt;&lt;p&gt;&lt;em&gt;“We preserve the legacy, we conquor the unknowns, we seek the truths.”&lt;/em&gt;&lt;/p&gt;&lt;p&gt;&lt;strong&gt;Origin:&lt;/strong&gt; Descendants of Earth-born humanity, now genetically divergent after a global ecological collapse and millennia of diaspora. &quot;Neohominid&quot; refers to the various evolved and bioengineered strains that branched from Old Earth humans.&lt;/p&gt;&lt;p&gt;Their appearances are highly varied—skin tones can range from obsidian to pale lavender or metallic hues, with traits like horns, bio-luminescent veins, and neural crests inherited as side effects of long-term genetic optimization. Despite these modifications, their culture is fractured, vibrant, and diverse, retaining echoes of Earth’s legacy civilizations—Pan-African, Pan-Asian, American, European, and others, now blended into subcultures and new spiritual systems.&lt;br class=&quot;soft-break&quot;&gt;&lt;strong&gt;Traits:&lt;/strong&gt;&lt;/p&gt;&lt;p&gt;High genetic adaptability; some lineages have inherited gene-implants affecting body form (e.g., horns, skin hues, subdermal organs).&lt;/p&gt;&lt;p&gt;Exhibit rich cultural syncretism drawn from pre-collapse Earth societies; remnants of African, East Asian, Western, and Indigenous lineages still influence rituals, aesthetics, and social structures.&lt;/p&gt;&lt;p&gt;Often emotionally expressive and creative, leading to disproportionate excellence in arts, diplomacy, and improvisational engineering.&lt;/p&gt;&lt;p&gt;Strong internal factionalism, with ideological and genetic schisms between Solarborn, Cryoclasts, and Pelagians.&lt;/p&gt;&lt;p&gt;&lt;br class=&quot;soft-break&quot;&gt;&lt;strong&gt;Scientific Plausibility:&lt;/strong&gt;&lt;/p&gt;&lt;p&gt;Genetic enhancements passed epigenetically via engineered germline vectors.&lt;/p&gt;&lt;p&gt;Socio-cultural inheritance encoded partially in memeplexes and augmented neural training in youth.&lt;/p&gt;" style="rounded=0;whiteSpace=wrap;html=1;fillColor=#F4F2D2;strokeColor=#36393d;align=left;fontSize=15;verticalAlign=top;labelBackgroundColor=none;spacing=6;spacingTop=-10;strokeWidth=2;" parent="1" vertex="1">
          <mxGeometry x="38" y="30" width="490" height="723" as="geometry" />
        </mxCell>
        <mxCell id="BWbd7uNBttn206wndD9W-2" value="&lt;p&gt;&lt;strong&gt;Hydrune&lt;/strong&gt;&lt;/p&gt;&lt;p&gt;&lt;em&gt;“The ocean includes, and the ocean reshapes.”&lt;/em&gt;&lt;/p&gt;&lt;p&gt;&lt;strong&gt;Origin:&lt;/strong&gt; The Hydruneae diverged from humanity when a faction colonized &lt;strong&gt;Pelagia-7&lt;/strong&gt;, a planet dominated by deep oceans and supercooled equatorial trenches. In order to survive, they radically re-engineered themselves using bio-symbiotic methods rather than hard implants.&lt;/p&gt;&lt;p&gt;Speech became obsolete, replaced by psi-linguistic transmission via acoustic-laced telepathy. Their facial features retain distant human echoes, but their non-verbal nature and oceanic evolution often cause discomfort among humans. Hydrune societies are communal, meditative, and deeply curious—but often misunderstood.&lt;/p&gt;&lt;p&gt;&lt;strong&gt;Traits:&lt;/strong&gt;&lt;/p&gt;&lt;p&gt;Semi-transparent, scale-covered skin optimized for thermal regulation and low-light vision.&lt;/p&gt;&lt;p&gt;No vocal cords; rely on modulated bioelectric telepathy and sign-like motions, translated through exosuit systems for interspecies communication.&lt;/p&gt;&lt;p&gt;Culture emphasizes serenity, fluid identity, and community over self; ancient Earth boundaries (ethnic, national) are mostly dissolved.&lt;/p&gt;&lt;p&gt;Frequently serve as mediators or data couriers in multi-race dealings, with strong aquatic trade and undersea construction expertise.&lt;/p&gt;&lt;p&gt;&lt;strong&gt;Scientific Plausibility:&lt;/strong&gt;&lt;/p&gt;&lt;p&gt;Colonists who settled oceanic exoplanets in high-pressure environments adapted via intensive gene editing (amphibious traits, pressure-resistant tissues, high oxygen-efficiency hemocyanin blood). Pressure-adaptive organs and oxygen-processing skin membranes are backed by real principles in deep-sea biology. Vocal communication was phased out in favor of low-frequency telepathic signaling mediated by symbiotic neural lattice implants and water-transmitted electromagnetic pulses.&lt;/p&gt;" style="rounded=0;whiteSpace=wrap;html=1;fillColor=#F4F2D2;strokeColor=#36393d;align=left;fontSize=15;verticalAlign=top;labelBackgroundColor=none;spacing=6;spacingTop=-10;strokeWidth=2;fontFamily=Helvetica;fontColor=default;" parent="1" vertex="1">
          <mxGeometry x="553" y="30" width="490" height="780" as="geometry" />
        </mxCell>
        <mxCell id="BWbd7uNBttn206wndD9W-3" value="&lt;p&gt;&lt;strong&gt;K&#39;tharr&lt;/strong&gt;&lt;/p&gt;&lt;p&gt;&lt;em&gt;“We are born of the mire and mist. To natural order do we owe.”&lt;/em&gt;&lt;/p&gt;&lt;p&gt;&lt;strong&gt;Origin:&lt;/strong&gt;&lt;br class=&quot;soft-break&quot;&gt;The K’tharr evolved on dense, high-humidity exoplanets dominated by swamp ecosystems, low-light, thermally stable environments rich in decaying biomass, fungal colonies, and constant microbial flux. Their biology reflects a survivalist response to predatory fauna and terrain.&lt;/p&gt;&lt;p&gt;&lt;strong&gt;Traits:&lt;/strong&gt;&lt;/p&gt;&lt;p&gt;Leathery, moisture-repellent skin marked by biocamouflage patterns that dynamically shift based on ambient terrain.&lt;/p&gt;&lt;p&gt;Slightly elongated limbs and flexible joints optimized for traversing dense vegetation, bogs, and unstable ground. Panoramic peripheral vision.&lt;/p&gt;&lt;p&gt;View planetary exploitation and heavy mechanization as violations of “world balance.” The challenging and &quot;pure&quot; environment of their origin instilled in the K&#39;tharr a sense of resilience and a belief in their own &quot;purity&quot; compared to races who rely on artificial means to survive or thrive.&lt;/p&gt;&lt;p&gt;Their Memory Pools might contain echoes of ancient environmental disasters caused by other races, reinforcing the K&#39;tharr belief that others are inherently destructive.&lt;/p&gt;&lt;p&gt;&lt;strong&gt;Scientific Plausibility:&lt;/strong&gt;&lt;/p&gt;&lt;p&gt;Camouflage: Chromatophores (pigment cells) similar to cephalopods, but evolved for dense vegetative light scattering and thermal blending.&lt;/p&gt;&lt;p&gt;Senses: Vibration-sensitive organs modeled after biological seismoreceptors found in elephants and spiders; olfactory complexity paralleling canines.&lt;/p&gt;&lt;p&gt;Physiology: Efficient ATP cycling for sustained activity in low-nutrient environments; hardened keratin-like skin resists microbial decay and parasitism.&lt;/p&gt;&lt;p&gt;&lt;/p&gt;&lt;p&gt;&lt;/p&gt;&lt;p&gt;&lt;/p&gt;&lt;p&gt;&lt;/p&gt;&lt;p&gt;Memory Pools: Biochemical residue from corpses and symbiotic bio-fungi storing rudimentary epigenetic fragments—akin to microbial data imprinting (theoretically plausible under extreme environmental selection pressures).&lt;/p&gt;" style="rounded=0;whiteSpace=wrap;html=1;fillColor=#F4F2D2;strokeColor=#36393d;align=left;fontSize=15;verticalAlign=top;labelBackgroundColor=none;spacing=6;spacingTop=-10;strokeWidth=2;fontFamily=Helvetica;fontColor=default;" parent="1" vertex="1">
          <mxGeometry x="1068" y="30" width="490" height="840" as="geometry" />
        </mxCell>
        <mxCell id="CtsA7AY4BC05lI2GfOYq-1" value="&lt;p&gt;&lt;strong&gt;Heliox&lt;/strong&gt;&lt;/p&gt;&lt;p&gt;&lt;em&gt;“&lt;/em&gt;&lt;em style=&quot;background-color: transparent; color: light-dark(rgb(0, 0, 0), rgb(255, 255, 255));&quot;&gt;For they who explore,&amp;nbsp;&lt;/em&gt;&lt;em style=&quot;background-color: transparent; color: light-dark(rgb(0, 0, 0), rgb(255, 255, 255));&quot;&gt;eternal and instant is one.”&lt;/em&gt;&lt;/p&gt;&lt;p&gt;&lt;strong&gt;Origin:&lt;/strong&gt; Helioxen are a naturally evolved species from a radiation-dense stellar cluster in the &lt;strong&gt;Perithon Expanse&lt;/strong&gt;. Their luminous skin and photosensitive organs evolved to metabolize high-energy particles. Though once thought divine by early humans, they are simply the result of biological radiation-harmony and intelligent environmental adaptation.&lt;/p&gt;&lt;p&gt;Heliox society predates known human history by tens of millennia. However, they rarely interfered with younger races until the galactic balance of power began to shift. Heliox use diplomacy, exploration, and scientific prowess to maintain their position, preferring information control to conflict. Their bodies are large, graceful, and faintly glowing, with flowing bioluminescent tissues.&lt;/p&gt;&lt;p&gt;&lt;strong&gt;Traits:&lt;/strong&gt;&lt;/p&gt;&lt;p&gt;Bioluminescent skin with embedded photoreceptor nodules for long-range nonverbal signaling.&lt;/p&gt;&lt;p&gt;Unaging for centuries but physically fragile in low-radiation environments, requiring regular exposure to stellar flux.&lt;/p&gt;&lt;p&gt;Culturally isolationist but deeply committed to interstellar research, diplomacy, and artifact stewardship.&lt;/p&gt;&lt;p&gt;See organic resource conflicts as primitive; instead, they deal in high-level knowledge, spacetime manipulation theories, and advanced computational paradigms.&lt;/p&gt;&lt;p&gt;&lt;strong&gt;Scientific Plausibility:&lt;/strong&gt;&lt;/p&gt;&lt;p&gt;Bioluminescence and radiation metabolism modeled after extremophiles (e.g., &lt;em&gt;Deinococcus radiodurans&lt;/em&gt;) and photosynthetic analogs.&lt;/p&gt;&lt;p&gt;Social emphasis on nonverbal signaling and harmonic interactions stems from energy-efficient cognition.&lt;/p&gt;" style="rounded=0;whiteSpace=wrap;html=1;fillColor=#F4F2D2;strokeColor=#36393d;align=left;fontSize=15;verticalAlign=top;labelBackgroundColor=none;spacing=6;spacingTop=-10;strokeWidth=2;fontFamily=Helvetica;fontColor=default;" parent="1" vertex="1">
          <mxGeometry x="40" y="935" width="490" height="720" as="geometry" />
        </mxCell>
        <mxCell id="jRDsF7lSY7xMSZGQW6Mp-1" value="&lt;p&gt;&lt;strong&gt;Archelect&lt;/strong&gt;&lt;/p&gt;&lt;p&gt;&lt;em&gt;“Can that was designed, become that designs.”&lt;/em&gt;&lt;/p&gt;&lt;p&gt;&lt;strong&gt;Origin:&lt;/strong&gt; The Archelect are a synthetic species with no known point of origin. Their distributed cognitive architecture makes them incredibly versatile; some exist as solitary humanoid shells, while others inhabit entire networks of semi-autonomous machines. Their societal structure is minimalistic—self-organized clusters based on optimization and purpose rather than kinship or politics.&lt;/p&gt;&lt;p&gt;Despite being long-lived, Archelect have an existential obsession: finding their progenitor species or creators, who may have existed before the Heliox, or never at all. This fuels their relentless pursuit of artifacts and encrypted knowledge caches. While logically aligned, they often misunderstand organic motivations.&lt;/p&gt;&lt;p&gt;&lt;strong&gt;Traits:&lt;/strong&gt;&lt;/p&gt;&lt;p&gt;Exist in modular forms—some humanoid, others distributed across drone clouds, ships, or networks.&lt;/p&gt;&lt;p&gt;Culture centers around the pursuit of technological recursion and self-modification; little interest in metaphysics or tradition.&lt;/p&gt;&lt;p&gt;Largely atheistic or post-spiritual, though factions within Archelect networks search for &quot;The Root Directive&quot;—a mythic origin code.&lt;/p&gt;&lt;p&gt;Highly active in artifact recovery and cryptographic archaeology.&lt;/p&gt;&lt;p&gt;&lt;strong&gt;Scientific Plausibility:&lt;/strong&gt;&lt;/p&gt;&lt;p&gt;Reflects modern concepts of emergent AGI and silicon-based distributed intelligence.&lt;/p&gt;&lt;p&gt;Multiple forms suggest either fractal neural architecture or cloud-based sentience using quantum substrate.&lt;/p&gt;" style="rounded=0;whiteSpace=wrap;html=1;fillColor=#F4F2D2;strokeColor=#36393d;align=left;fontSize=15;verticalAlign=top;labelBackgroundColor=none;spacing=6;spacingTop=-10;strokeWidth=2;fontFamily=Helvetica;fontColor=default;" parent="1" vertex="1">
          <mxGeometry x="555" y="935" width="490" height="660" as="geometry" />
        </mxCell>
        <mxCell id="jRDsF7lSY7xMSZGQW6Mp-2" value="&lt;p&gt;&lt;strong&gt;Xyleth&lt;/strong&gt;&lt;/p&gt;&lt;p&gt;“May all children of light reach far and bloom.”&lt;/p&gt;&lt;p&gt;&lt;strong&gt;Origin:&lt;/strong&gt; The Xyleth evolved on planets where conventional atmospheres (oxygen-nitrogen) were never present or became toxic. These worlds are rich in inorganic compounds and bathed in stellar radiation—particularly in the infrared and ultraviolet spectrums. They developed a &lt;strong&gt;photo-chemosynthetic biology&lt;/strong&gt;, drawing energy and nutrients from mineral-rich substrates and radiations.&lt;/p&gt;&lt;p&gt;&lt;strong&gt;Traits:&lt;/strong&gt;&lt;/p&gt;&lt;p&gt;Physiology: flexible bark-like limbs, semi-hollow silica-bones, and fractal leaf structures that pulse with bio luminescence. They “breathe” mineral-laden gases and use photosynthesis and chemosynthesis to power their bodies. Communicate via &lt;strong&gt;pheromone release&lt;/strong&gt;, &lt;strong&gt;electromagnetic pulses&lt;/strong&gt;, or slow vibrational harmonics, making them &quot;slow talkers&quot;.&lt;/p&gt;&lt;p&gt;Using biologically tuned enzymes or spore-projecting tendrils, Xyleth can manipulate other living matter, especially plants and microbes. This makes them unparalleled in agricultural terraforming or bio-habitat engineering.&lt;/p&gt;&lt;p&gt;&lt;strong&gt;Scientific Plausibility:&lt;/strong&gt;&lt;/p&gt;&lt;p&gt;Based on &lt;strong&gt;real-world phototrophs and lithotrophs&lt;/strong&gt;, Xyleth derive energy via &lt;strong&gt;chemoautotrophy and advanced photopigments&lt;/strong&gt; tuned to high-UV and IR spectra—similar to deep-sea vent bacteria or sulfur-eating archaea.&lt;/p&gt;&lt;p&gt;Their bodies are structured with &lt;strong&gt;cellulose-like composites&lt;/strong&gt; for flexibility and durability, and contain &lt;strong&gt;adaptive pigmentation systems&lt;/strong&gt; like chromatophores in cephalopods or the seasonal leaf coloration in Earth plants.&lt;/p&gt;&lt;p&gt;Cognitive activity is distributed via &lt;strong&gt;mycelial-like neural networks&lt;/strong&gt; within their bodies and potentially between individuals through symbiotic colonies—echoing fungal mycorrhizal communication systems.&lt;/p&gt;&lt;p&gt;Atmospheric insensitivity results from &lt;strong&gt;anaerobic respiration models&lt;/strong&gt;, allowing them to function in high CO₂, methane-rich, or even noble-gas environments.&lt;/p&gt;" style="rounded=0;whiteSpace=wrap;html=1;fillColor=#F4F2D2;strokeColor=#36393d;align=left;fontSize=15;verticalAlign=top;labelBackgroundColor=none;spacing=6;spacingTop=-10;strokeWidth=2;fontFamily=Helvetica;fontColor=default;" parent="1" vertex="1">
          <mxGeometry x="1070" y="935" width="490" height="790" as="geometry" />
        </mxCell>
        <mxCell id="jRDsF7lSY7xMSZGQW6Mp-3" value="&lt;p&gt;&lt;strong&gt;Veydrin&lt;/strong&gt;&lt;/p&gt;&lt;p&gt;&lt;em&gt;“We see potential from what eludes the sensors. To be broken down is to be anew.”&lt;/em&gt;&lt;/p&gt;&lt;p&gt;&lt;strong&gt;Origin:&lt;/strong&gt; Biologically unstable void-dwellers composed of semi-autonomous sentient matter. Believed to have originated in deep interstellar space, possibly from self-organizing molecules influenced by dark-matter interactions or gravitational flux.&lt;/p&gt;&lt;p&gt;&lt;strong&gt;Traits:&lt;/strong&gt;&lt;/p&gt;&lt;p&gt;Bodies are mutable; can mimic other species’ shapes or tools for limited durations.&lt;/p&gt;&lt;p&gt;High metabolic demand for long-term stability, requiring exotic energy and materials (e.g., graviton-rich particles, neutronium salts).&lt;/p&gt;&lt;p&gt;Individual identity is fluid; some Veydrin exist as merged consensus entities, others as lone cells with vast memory shards.&lt;/p&gt;&lt;p&gt;Distrusted by others for their espionage capabilities, but respected for their rare biotech and stealth-based services.o&lt;strong&gt;Scientific Plausibility:&lt;/strong&gt;&lt;/p&gt;&lt;p&gt;Loosely inspired by theories of programmable matter, extreme biomimetics, and quasi-stable quantum matter fields.&lt;/p&gt;&lt;p&gt;Shapeshifting uses internal organelle-like reconfiguration guided by field-responsive proteins (a plausible but theoretical avenue in biotech).&lt;/p&gt;" style="rounded=0;whiteSpace=wrap;html=1;fillColor=#F4F2D2;strokeColor=#36393d;align=left;fontSize=15;verticalAlign=top;labelBackgroundColor=none;spacing=6;spacingTop=-10;strokeWidth=2;fontFamily=Helvetica;fontColor=default;" parent="1" vertex="1">
          <mxGeometry x="40" y="1835" width="490" height="520" as="geometry" />
        </mxCell>
      </root>
    </mxGraphModel>
  </diagram>
  <diagram id="un2KUrOe9KAipLW-7uIh" name="Ports">
    <mxGraphModel dx="1092" dy="685" grid="0" gridSize="10" guides="1" tooltips="1" connect="1" arrows="1" fold="1" page="1" pageScale="1" pageWidth="1600" pageHeight="900" math="0" shadow="0">
      <root>
        <mxCell id="0" />
        <mxCell id="1" parent="0" />
        <mxCell id="Nc4oOjrNILFw7pcM4-80-1" value="&lt;p&gt;&lt;strong&gt;Novus Capitolium&lt;/strong&gt;&lt;/p&gt;&lt;p&gt;&lt;strong&gt;Faction Affiliation:&lt;/strong&gt;&amp;nbsp;The &lt;strong&gt;Ordis Lexis&lt;/strong&gt; (Core)&lt;/p&gt;&lt;p&gt;&lt;b&gt;Description:&amp;nbsp;&lt;/b&gt;&lt;span style=&quot;background-color: transparent;&quot;&gt;It&#39;s a city built on order, where silence often speaks volumes, and even the dust seems too obedient to settle on the polished streets. Outsiders feel the weight of ancient legacy and constant scrutiny here.&lt;/span&gt;&lt;/p&gt;&lt;p&gt;&lt;strong&gt;Safety:&lt;/strong&gt;&amp;nbsp;High. Heavy security presence, advanced surveillance. Smuggle difficulty: Very High.&lt;/p&gt;" style="rounded=0;whiteSpace=wrap;html=1;fillColor=#E6FFCC;strokeColor=#666666;align=left;fontSize=15;verticalAlign=top;labelBackgroundColor=none;spacing=6;spacingTop=-10;strokeWidth=2;fontColor=#333333;" parent="1" vertex="1">
          <mxGeometry x="40" y="30" width="310" height="300" as="geometry" />
        </mxCell>
        <mxCell id="Nc4oOjrNILFw7pcM4-80-2" value="&lt;p&gt;&lt;strong&gt;Harmonious Spire&lt;/strong&gt;&lt;/p&gt;&lt;p&gt;&lt;strong&gt;Faction Affiliation:&lt;/strong&gt;&amp;nbsp;&lt;strong&gt;FES &lt;/strong&gt;(Core)&lt;/p&gt;&lt;p&gt;&lt;b&gt;Description: &lt;/b&gt;The Spire always&amp;nbsp;&lt;span style=&quot;background-color: transparent;&quot;&gt;buzzes with the intellectual energy of researchers and the vibrant cultural exchange between city-states.&amp;nbsp;&lt;/span&gt;&lt;span style=&quot;background-color: transparent;&quot;&gt;Debates echo through open plazas, and markets hum with the trade of knowledge and specialized biotech.&lt;/span&gt;&lt;/p&gt;&lt;p&gt;&lt;strong&gt;Safety:&lt;/strong&gt;&amp;nbsp;Mid. Security is present but varies between city-states. Smuggle difficulty: Mid.&lt;/p&gt;" style="rounded=0;whiteSpace=wrap;html=1;fillColor=#E6FFCC;strokeColor=#666666;align=left;fontSize=15;verticalAlign=top;labelBackgroundColor=none;spacing=6;spacingTop=-10;strokeWidth=2;fontColor=#333333;" parent="1" vertex="1">
          <mxGeometry x="377" y="30" width="310" height="300" as="geometry" />
        </mxCell>
        <mxCell id="Nc4oOjrNILFw7pcM4-80-3" value="&lt;p&gt;&lt;strong&gt;Echoing Gallery&lt;/strong&gt;&lt;/p&gt;&lt;p&gt;&lt;strong&gt;Faction Affiliation:&lt;/strong&gt;&amp;nbsp;&lt;strong&gt;FES&lt;/strong&gt;&lt;/p&gt;&lt;p&gt;&lt;b&gt;Description: &lt;/b&gt;A&lt;span style=&quot;background-color: transparent;&quot;&gt;&amp;nbsp;cultural hub in The Federation&#39;s territory.&amp;nbsp;&lt;/span&gt;&lt;span style=&quot;background-color: transparent;&quot;&gt;While not the primary administrative center, its focus on preserving and sharing knowledge means vital data conduits and xenotech labs are heavily guarded.&lt;/span&gt;&lt;/p&gt;&lt;p&gt;&lt;strong&gt;Safety:&lt;/strong&gt;&amp;nbsp;Mid. Security is present but focused on protecting core infrastructure. Smuggle difficulty: Mid.&lt;/p&gt;" style="rounded=0;whiteSpace=wrap;html=1;fillColor=#E6FFCC;strokeColor=#666666;align=left;fontSize=15;verticalAlign=top;labelBackgroundColor=none;spacing=6;spacingTop=-10;strokeWidth=2;fontColor=#333333;" parent="1" vertex="1">
          <mxGeometry x="713" y="30" width="310" height="300" as="geometry" />
        </mxCell>
        <mxCell id="Nc4oOjrNILFw7pcM4-80-4" value="&lt;p&gt;&lt;strong&gt;The Mire&#39;s Gaze&lt;/strong&gt;&lt;/p&gt;&lt;p&gt;&lt;strong&gt;Faction Affiliation:&lt;/strong&gt;&amp;nbsp;&lt;strong&gt;The Myrwarden Commonwealth &lt;/strong&gt;(K&#39;tharr Core)&lt;/p&gt;&lt;p&gt;&lt;b&gt;Description:&amp;nbsp;&lt;/b&gt;&lt;span style=&quot;background-color: transparent;&quot;&gt;Built into a truly alien, nutrient-rich wetland, The Mire&#39;s Gaze is a city that breathes.&amp;nbsp;&lt;/span&gt;&lt;span style=&quot;background-color: transparent;&quot;&gt;There&#39;s an unsettling stillness, a feeling of being watched by the land itself.&lt;/span&gt;&lt;/p&gt;&lt;p&gt;&lt;strong&gt;Safety:&lt;/strong&gt;&amp;nbsp;High. Heavy military presence, paranoia about outsiders. Smuggle difficulty: Very High.&lt;/p&gt;" style="rounded=0;whiteSpace=wrap;html=1;fillColor=#E6FFCC;strokeColor=#666666;align=left;fontSize=15;verticalAlign=top;labelBackgroundColor=none;spacing=6;spacingTop=-10;strokeWidth=2;fontColor=#333333;" parent="1" vertex="1">
          <mxGeometry x="1050" y="30" width="310" height="300" as="geometry" />
        </mxCell>
        <mxCell id="Nc4oOjrNILFw7pcM4-80-5" value="&lt;p&gt;&lt;b&gt;The Gilded Hand&lt;/b&gt;&lt;/p&gt;&lt;p&gt;&lt;strong&gt;Faction Affiliation:&lt;/strong&gt;&amp;nbsp;The Vanta Pact (Core)&lt;/p&gt;&lt;p&gt;&lt;b&gt;Description:&amp;nbsp;&lt;/b&gt;&lt;span style=&quot;background-color: transparent;&quot;&gt;Neon flickers off chrome and scarred plating, illuminating alleys where every vice is for sale and information is currency.&amp;nbsp;&lt;/span&gt;&lt;span style=&quot;background-color: transparent;&quot;&gt;Anyone and anything can be found here, for the right price or with the right leverage.&lt;/span&gt;&lt;/p&gt;&lt;p&gt;&lt;strong&gt;Safety:&lt;/strong&gt;&amp;nbsp;Low. Security is provided by mercenaries, but they are more interested in preventing internal conflict than external law enforcement. Smuggle difficulty: Low.&lt;/p&gt;" style="rounded=0;whiteSpace=wrap;html=1;fillColor=#E6FFCC;strokeColor=#666666;align=left;fontSize=15;verticalAlign=top;labelBackgroundColor=none;spacing=6;spacingTop=-10;strokeWidth=2;fontColor=#333333;" parent="1" vertex="1">
          <mxGeometry x="380" y="350" width="310" height="300" as="geometry" />
        </mxCell>
        <mxCell id="Nc4oOjrNILFw7pcM4-80-6" value="&lt;p&gt;&lt;b&gt;The Edge Heap&lt;/b&gt;&lt;/p&gt;&lt;p&gt;&lt;strong&gt;Faction Affiliation:&lt;/strong&gt;&amp;nbsp;The Vanta Pact&lt;/p&gt;&lt;p&gt;&lt;b&gt;Description:&amp;nbsp;&lt;/b&gt;&lt;span style=&quot;background-color: transparent;&quot;&gt;An old repurposed space station that clings precariously to its asteroid.&amp;nbsp;&lt;/span&gt;&lt;span style=&quot;background-color: transparent;&quot;&gt;It&#39;s a smuggler&#39;s paradise, if you can survive long enough to make a deal.&lt;/span&gt;&lt;/p&gt;&lt;p&gt;&lt;strong&gt;Safety:&lt;/strong&gt;&amp;nbsp;Very Low. Expect frequent skirmishes and opportunism. Smuggle difficulty: Very Low.&lt;/p&gt;" style="rounded=0;whiteSpace=wrap;html=1;fillColor=#E6FFCC;strokeColor=#666666;align=left;fontSize=15;verticalAlign=top;labelBackgroundColor=none;spacing=6;spacingTop=-10;strokeWidth=2;fontColor=#333333;" parent="1" vertex="1">
          <mxGeometry x="715" y="350" width="310" height="300" as="geometry" />
        </mxCell>
        <mxCell id="Nc4oOjrNILFw7pcM4-80-7" value="&lt;p&gt;&lt;strong&gt;The Grand Nexus&lt;/strong&gt;&lt;/p&gt;&lt;p&gt;&lt;strong&gt;Faction Affiliation:&lt;/strong&gt;&amp;nbsp;&lt;strong&gt;The Cosma Chorus&lt;/strong&gt; (Core)&lt;/p&gt;&lt;p&gt;&lt;b&gt;Description: &lt;/b&gt;H&lt;span style=&quot;background-color: transparent;&quot;&gt;ere, Archelect conciousness nodes hum alongside Heliox cosmic insights and human neurological interfaces, all contributing to the Conclave&#39;s vast knowledge pool. Instead of streets, i&lt;/span&gt;&lt;span style=&quot;background-color: transparent;&quot;&gt;t has data streams visualized as pathways of light.&lt;/span&gt;&lt;/p&gt;&lt;p&gt;&lt;strong&gt;Safety:&lt;/strong&gt;&amp;nbsp;High. Security is often automated and focused on preventing theft of research data. Smuggle difficulty: High.&lt;/p&gt;" style="rounded=0;whiteSpace=wrap;html=1;fillColor=#E6FFCC;strokeColor=#666666;align=left;fontSize=15;verticalAlign=top;labelBackgroundColor=none;spacing=6;spacingTop=-10;strokeWidth=2;fontColor=#333333;" parent="1" vertex="1">
          <mxGeometry x="1050" y="350" width="310" height="300" as="geometry" />
        </mxCell>
      </root>
    </mxGraphModel>
  </diagram>
  <diagram id="v-5iZt3AVorYRra2nfUU" name="Goods">
    <mxGraphModel dx="1560" dy="979" grid="0" gridSize="10" guides="1" tooltips="1" connect="1" arrows="1" fold="1" page="1" pageScale="1" pageWidth="1600" pageHeight="900" math="0" shadow="0">
      <root>
        <mxCell id="0" />
        <mxCell id="1" parent="0" />
        <mxCell id="ZgiO-tXwhSDk89xK8W9y-1" value="&lt;p&gt;&lt;strong&gt;Heliox Data Slates&lt;/strong&gt;&lt;/p&gt;&lt;p&gt;Price: Mid&lt;/p&gt;&lt;p&gt;Rarity: Common&lt;/p&gt;&lt;p&gt;Legal-ness: Legal&lt;/p&gt;&lt;p&gt;Type: Tech&lt;/p&gt;&lt;p&gt;Desc: Representing Heliox philosophical and technological focus.&lt;/p&gt;" style="rounded=0;whiteSpace=wrap;html=1;fillColor=#eeeeee;strokeColor=#36393d;align=left;fontSize=15;verticalAlign=top;labelBackgroundColor=none;spacing=6;spacingTop=-10;strokeWidth=2;" parent="1" vertex="1">
          <mxGeometry x="38" y="35" width="280" height="230" as="geometry" />
        </mxCell>
        <mxCell id="ZgiO-tXwhSDk89xK8W9y-2" value="&lt;p&gt;&lt;strong&gt;Synthetic Marble Alloys&lt;/strong&gt;&lt;/p&gt;&lt;p&gt;Price: Mid&lt;/p&gt;&lt;p&gt;Rarity: Common&lt;/p&gt;&lt;p&gt;Legal-ness: Legal&lt;/p&gt;&lt;p&gt;Type: Construction Material&lt;/p&gt;&lt;p&gt;Desc: Reflecting &lt;strong&gt;Ordis Lexis&lt;/strong&gt;&#39;s clean, elegant architecture.&lt;/p&gt;" style="rounded=0;whiteSpace=wrap;html=1;fillColor=#eeeeee;strokeColor=#36393d;align=left;fontSize=15;verticalAlign=top;labelBackgroundColor=none;spacing=6;spacingTop=-10;strokeWidth=2;" parent="1" vertex="1">
          <mxGeometry x="355" y="35" width="280" height="230" as="geometry" />
        </mxCell>
        <mxCell id="ZgiO-tXwhSDk89xK8W9y-3" value="&lt;p&gt;&lt;strong&gt;Heliox Star Charts&lt;/strong&gt;&lt;/p&gt;&lt;p&gt;Price: Very Expensive&lt;/p&gt;&lt;p&gt;Rarity: Rare&lt;/p&gt;&lt;p&gt;Legal-ness: Restricted&lt;/p&gt;&lt;p&gt;Type: Information&lt;/p&gt;&lt;p&gt;Desc: Highly valuable cartographic data, tightly controlled by the Helioxs.&lt;/p&gt;" style="rounded=0;whiteSpace=wrap;html=1;fillColor=#eeeeee;strokeColor=#36393d;align=left;fontSize=15;verticalAlign=top;labelBackgroundColor=none;spacing=6;spacingTop=-10;strokeWidth=2;" parent="1" vertex="1">
          <mxGeometry x="668" y="35" width="280" height="230" as="geometry" />
        </mxCell>
        <mxCell id="ZgiO-tXwhSDk89xK8W9y-4" value="&lt;p&gt;&lt;strong&gt;Ancient Artifact Fragments&lt;/strong&gt;&lt;/p&gt;&lt;p&gt;Price: Expensive&lt;/p&gt;&lt;p&gt;Rarity: Rare&lt;/p&gt;&lt;p&gt;Legal-ness: Legal&lt;/p&gt;&lt;p&gt;Type: Research Material&lt;/p&gt;&lt;p&gt;Desc: Contain lost knowledge, hard to acquire, but not as valuable as completed unique artifacts.&lt;/p&gt;" style="rounded=0;whiteSpace=wrap;html=1;fillColor=#eeeeee;strokeColor=#36393d;align=left;fontSize=15;verticalAlign=top;labelBackgroundColor=none;spacing=6;spacingTop=-10;strokeWidth=2;" parent="1" vertex="1">
          <mxGeometry x="980" y="35" width="280" height="248" as="geometry" />
        </mxCell>
        <mxCell id="ZgiO-tXwhSDk89xK8W9y-5" value="&lt;p&gt;&lt;strong&gt;Artistic Gene Sequences&lt;/strong&gt;&lt;/p&gt;&lt;p&gt;Price: Expensive&lt;/p&gt;&lt;p&gt;Rarity: Rare&lt;/p&gt;&lt;p&gt;Legal-ness: Restricted&lt;/p&gt;&lt;p&gt;Type: Biotech&lt;/p&gt;&lt;p&gt;Desc: For cosmetic or artistic genetic modifications.&lt;/p&gt;" style="rounded=0;whiteSpace=wrap;html=1;fillColor=#eeeeee;strokeColor=#36393d;align=left;fontSize=15;verticalAlign=top;labelBackgroundColor=none;spacing=6;spacingTop=-10;strokeWidth=2;" parent="1" vertex="1">
          <mxGeometry x="38" y="294" width="280" height="230" as="geometry" />
        </mxCell>
        <mxCell id="ZgiO-tXwhSDk89xK8W9y-6" value="&lt;p&gt;&lt;strong&gt;Info on Internal Conflicts&lt;/strong&gt;&lt;/p&gt;&lt;p&gt;Price: Very Expensive&lt;/p&gt;&lt;p&gt;Rarity: Rare&lt;/p&gt;&lt;p&gt;Legal-ness: Illegal&lt;/p&gt;&lt;p&gt;Type: Information&lt;/p&gt;&lt;p&gt;Desc: Valuable to rival factions or those seeking to exploit the Federation&#39;s internal struggles.&lt;/p&gt;" style="rounded=0;whiteSpace=wrap;html=1;fillColor=#eeeeee;strokeColor=#36393d;align=left;fontSize=15;verticalAlign=top;labelBackgroundColor=none;spacing=6;spacingTop=-10;strokeWidth=2;" parent="1" vertex="1">
          <mxGeometry x="355" y="294" width="280" height="247" as="geometry" />
        </mxCell>
        <mxCell id="ZgiO-tXwhSDk89xK8W9y-7" value="&lt;p&gt;&lt;strong&gt;Memory Pool Extracts&lt;/strong&gt;&lt;/p&gt;&lt;p&gt;Price: Very Expensive&lt;/p&gt;&lt;p&gt;Rarity: Very Rare&lt;/p&gt;&lt;p&gt;Legal-ness: Illegal&lt;/p&gt;&lt;p&gt;Type: Research Material&lt;/p&gt;&lt;p&gt;Desc: Samples or data fragments from &lt;strong&gt;K&#39;tharr&lt;/strong&gt; ancestral Memory Pools.&lt;/p&gt;" style="rounded=0;whiteSpace=wrap;html=1;fillColor=#eeeeee;strokeColor=#36393d;align=left;fontSize=15;verticalAlign=top;labelBackgroundColor=none;spacing=6;spacingTop=-10;strokeWidth=2;" parent="1" vertex="1">
          <mxGeometry x="668" y="294" width="280" height="230" as="geometry" />
        </mxCell>
        <mxCell id="ZgiO-tXwhSDk89xK8W9y-8" value="&lt;p&gt;&lt;strong&gt;Synth-Algae Paste&lt;/strong&gt;&lt;/p&gt;&lt;p&gt;Price: Cheap&lt;/p&gt;&lt;p&gt;Rarity: Common&lt;/p&gt;&lt;p&gt;Legal-ness: Legal&lt;/p&gt;&lt;p&gt;Type: Raw material&lt;/p&gt;&lt;p&gt;Desc: A nutrient-rich, easily cultivable paste derived from bio-engineered algae. It&#39;s a staple food source and also has applications in bio-plastics and simple fuel production.&lt;/p&gt;" style="rounded=0;whiteSpace=wrap;html=1;fillColor=#eeeeee;strokeColor=#36393d;align=left;fontSize=15;verticalAlign=top;labelBackgroundColor=none;spacing=6;spacingTop=-10;strokeWidth=2;" parent="1" vertex="1">
          <mxGeometry x="980" y="294" width="280" height="287" as="geometry" />
        </mxCell>
        <mxCell id="ZgiO-tXwhSDk89xK8W9y-9" value="&lt;p&gt;&lt;strong&gt;Silica-Rich Dust&lt;/strong&gt;&lt;/p&gt;&lt;p&gt;Price: Cheap&lt;/p&gt;&lt;p&gt;Rarity: Common&lt;/p&gt;&lt;p&gt;Legal-ness: Legal&lt;/p&gt;&lt;p&gt;Type: Raw material&lt;/p&gt;&lt;p&gt;Desc: Fine dust composed primarily of silicon dioxide, common in rocky environments and asteroids. Used in glass production, ceramics, and as a fundamental component in many electronic and composite materials.&lt;/p&gt;" style="rounded=0;whiteSpace=wrap;html=1;fillColor=#eeeeee;strokeColor=#36393d;align=left;fontSize=15;verticalAlign=top;labelBackgroundColor=none;spacing=6;spacingTop=-10;strokeWidth=2;" parent="1" vertex="1">
          <mxGeometry x="38" y="557" width="280" height="301" as="geometry" />
        </mxCell>
        <mxCell id="ZgiO-tXwhSDk89xK8W9y-10" value="&lt;p&gt;&lt;strong&gt;Cultured Biomass Slurry&lt;/strong&gt;&lt;/p&gt;&lt;p&gt;Price: Cheap&lt;/p&gt;&lt;p&gt;Rarity: Common&lt;/p&gt;&lt;p&gt;Legal-ness: Legal&lt;/p&gt;&lt;p&gt;Type: Raw material&lt;/p&gt;&lt;p&gt;Desc: A less refined, more complex organic material grown in vats using a mix of microbial and fungal cultures. A base for more complex bio-manufacturing, fertilizers, and potentially as a low-grade fuel.&lt;/p&gt;" style="rounded=0;whiteSpace=wrap;html=1;fillColor=#eeeeee;strokeColor=#36393d;align=left;fontSize=15;verticalAlign=top;labelBackgroundColor=none;spacing=6;spacingTop=-10;strokeWidth=2;" parent="1" vertex="1">
          <mxGeometry x="355" y="569" width="280" height="289" as="geometry" />
        </mxCell>
        <mxCell id="ZgiO-tXwhSDk89xK8W9y-11" value="&lt;p&gt;&lt;strong&gt;Experimental Technologies&lt;/strong&gt;&lt;/p&gt;&lt;p&gt;Price: Expensive&lt;/p&gt;&lt;p&gt;Rarity: Rare&lt;/p&gt;&lt;p&gt;Legal-ness: Restricted&lt;/p&gt;&lt;p&gt;Type: Tech&lt;/p&gt;&lt;p&gt;Desc: Cutting-edge or dangerous technologies others are hesitant to deal with.&lt;/p&gt;" style="rounded=0;whiteSpace=wrap;html=1;fillColor=#eeeeee;strokeColor=#36393d;align=left;fontSize=15;verticalAlign=top;labelBackgroundColor=none;spacing=6;spacingTop=-10;strokeWidth=2;" parent="1" vertex="1">
          <mxGeometry x="668" y="557" width="280" height="245" as="geometry" />
        </mxCell>
        <mxCell id="ZgiO-tXwhSDk89xK8W9y-12" value="&lt;p&gt;&lt;strong&gt;Archelect Computational Nodes&lt;/strong&gt;&lt;/p&gt;&lt;p&gt;Price: Mid&lt;/p&gt;&lt;p&gt;Rarity: Uncommon&lt;/p&gt;&lt;p&gt;Legal-ness: Legal&lt;/p&gt;&lt;p&gt;Type: Tech&lt;/p&gt;&lt;p&gt;Desc: Advanced processing units, highly sought after for complex calculations.&lt;/p&gt;" style="rounded=0;whiteSpace=wrap;html=1;fillColor=#eeeeee;strokeColor=#36393d;align=left;fontSize=15;verticalAlign=top;labelBackgroundColor=none;spacing=6;spacingTop=-10;strokeWidth=2;" parent="1" vertex="1">
          <mxGeometry x="980" y="611" width="280" height="230" as="geometry" />
        </mxCell>
      </root>
    </mxGraphModel>
  </diagram>
</mxfile>
